<svg xmlns="http://www.w3.org/2000/svg" xmlns:xlink="http://www.w3.org/1999/xlink" viewBox="0 0 113.37 113.39"><defs><style>.cls-1{fill:url(#linear-gradient);}.cls-2{fill:#fff;fill-rule:evenodd;}</style><linearGradient id="linear-gradient" x1="-209.76" y1="-526.69" x2="-108.85" y2="-446.76" gradientTransform="translate(-104.83 -431.78) rotate(180)" gradientUnits="userSpaceOnUse"><stop offset="0" stop-color="#fbbf54"/><stop offset="0.33" stop-color="#e62b42"/><stop offset="0.65" stop-color="#a04091"/><stop offset="1" stop-color="#494d9b"/></linearGradient></defs><title>Recurso 1</title><g id="Capa_2" data-name="Capa 2"><g id="Capa_1-2" data-name="Capa 1"><path id="_Trazado_" data-name="&lt;Trazado&gt;" class="cls-1" d="M0,56.7a56.69,56.69,0,1,1,56.69,56.69A56.69,56.69,0,0,1,0,56.7Z"/><path class="cls-2" d="M76.54,56.7A19.86,19.86,0,1,0,56.69,76.54,19.86,19.86,0,0,0,76.54,56.7Zm-.38-22.56a3.2,3.2,0,1,0,3.2,3.2,3.19,3.19,0,0,0-3.2-3.2Zm-35.7-4.58H72.91a10.94,10.94,0,0,1,10.92,10.9V72.92A10.94,10.94,0,0,1,72.91,83.83H40.46A10.94,10.94,0,0,1,29.55,72.92V40.46a10.94,10.94,0,0,1,10.91-10.9Zm32.45-3.64H40.46A14.59,14.59,0,0,0,25.91,40.46V72.92A14.6,14.6,0,0,0,40.46,87.48H72.91A14.59,14.59,0,0,0,87.46,72.92V40.46A14.59,14.59,0,0,0,72.91,25.92ZM41,56.7A15.73,15.73,0,1,1,56.69,72.43,15.74,15.74,0,0,1,41,56.7Z"/></g></g></svg>