<svg id="Capa_1" data-name="Capa 1" xmlns="http://www.w3.org/2000/svg" xmlns:xlink="http://www.w3.org/1999/xlink" viewBox="0 0 255.26 243.32"><defs><style>.cls-1{fill:none;}.cls-2{clip-path:url(#clip-path);}.cls-3{fill:url(#radial-gradient);}.cls-4{fill:#223c72;}.cls-5{fill:#efebe7;}.cls-6{fill:#ed3726;}.cls-7{fill:#2f3e67;}</style><clipPath id="clip-path" transform="translate(-72.44 -77.62)"><path class="cls-1" d="M200,77.62A115.77,115.77,0,1,0,227.86,81,115.7,115.7,0,0,0,200,77.62h0"/></clipPath><radialGradient id="radial-gradient" cx="-1787.83" cy="2188.29" r="0.59" gradientTransform="matrix(197.47, 0, 0, -197.47, 353166.8, 432232.03)" gradientUnits="userSpaceOnUse"><stop offset="0" stop-color="#fff"/><stop offset="0.78" stop-color="#fff"/><stop offset="0.82" stop-color="#f9f8f8"/><stop offset="0.88" stop-color="#e9e6e3"/><stop offset="0.94" stop-color="#cfc8c2"/><stop offset="1" stop-color="#b5aba1"/></radialGradient></defs><title>b03</title><g class="cls-2"><rect class="cls-3" width="255.26" height="243.32"/></g><path class="cls-4" d="M87.79,165.52a115.67,115.67,0,1,1,84.49,140.06A115.65,115.65,0,0,1,87.79,165.52" transform="translate(-72.44 -77.62)"/><path class="cls-5" d="M282.12,111.75l-46.51,31V83.24Q231.8,82,227.86,81a115.13,115.13,0,0,0-63.63,2.29v59.44l-46.33-30.88A114.89,114.89,0,0,0,92.81,150l12.27,8.18H89.87c-.76,2.4-1.46,4.84-2.08,7.33a115.08,115.08,0,0,0,2.43,64.06h15.15l-12.14,8.09a116.26,116.26,0,0,0,25.46,37.87l45.52-30.34v58.08q4,1.29,8.05,2.31a115.11,115.11,0,0,0,63.33-2.2V245.19l45.7,30.46a114.9,114.9,0,0,0,25.53-37.82l-12.39-8.26h15.46q1.37-4.16,2.44-8.48a115.16,115.16,0,0,0-2.06-62.9H294.76l12.51-8.34a116.22,116.22,0,0,0-25.14-38.1" transform="translate(-72.44 -77.62)"/><path class="cls-6" d="M146.43,158.19l-42.95-28.57a114.71,114.71,0,0,0-7.72,13.65l22.42,14.92Zm150-28.79A116.18,116.18,0,0,0,287,116.94l-51.34,34.14v7.11h17.58Zm-192.68,128a116.08,116.08,0,0,0,9.55,12.43L164.22,236v-6.45H145.68ZM314,173.06H220.74V79.51a115,115,0,0,0-41.65,0v93.53H86.19a115,115,0,0,0,.18,41.64h92.72V307a115,115,0,0,0,41.65.09V214.69h93a115.05,115.05,0,0,0,.24-41.64m-59.79,56.52,42.09,28a114.71,114.71,0,0,0,7.8-13.61l-21.64-14.39Z" transform="translate(-72.44 -77.62)"/><path class="cls-7" d="M235.61,95.28h0v7.5a13.35,13.35,0,0,0,.7-4,8.46,8.46,0,0,0-.7-3.47" transform="translate(-72.44 -77.62)"/></svg>