<svg id="Capa_1" data-name="Capa 1" xmlns="http://www.w3.org/2000/svg" viewBox="0 0 233.39 233.39"><defs><style>.cls-1{fill:#f1f1f2;}.cls-2{fill:#ed3726;}.cls-3{fill:#223c72;}.cls-4{fill:#3e3e3f;}</style></defs><title>b04</title><path class="cls-1" d="M87.27,164.28a116.67,116.67,0,1,1,85.22,141.28A116.65,116.65,0,0,1,87.27,164.28" transform="translate(-83.82 -75.61)"/><path class="cls-2" d="M247.22,185.7a44.31,44.31,0,1,1-48.15-40.09,44.32,44.32,0,0,1,48.15,40.09" transform="translate(-83.82 -75.61)"/><path class="cls-3" d="M165.2,166.83A22.13,22.13,0,1,0,203,189.78a22.12,22.12,0,0,1,37.83,22.93,44.25,44.25,0,1,1-75.68-45.88" transform="translate(-83.82 -75.61)"/><path class="cls-4" d="M131.13,239.21l11.51,17.06,5.76-3.87-11.52-17.06Zm-1.83-2.7,5.76-3.88-11.52-17.08-5.76,3.87Zm-20.37-11.1,24.86,36.85,5.74-3.87-24.86-36.85Zm17.71-11.95,24.86,36.85,5.73-3.88-24.85-36.86ZM279.54,166,268,148.91l-5.75,3.88,11.51,17.08Zm-13.34-19.79-11.5-17.09L248.95,133l11.51,17.07Zm25.34,11.71,5.74-3.88L285.74,137,280,140.85Zm-7.6-23.67L272.4,117.18l-5.75,3.88,11.52,17.08ZM288.4,160l-24.84-36.86L257.8,127l24.86,36.85Zm-21.75,98.36,5.75,3.87,11.52-17.08-5.76-3.88ZM280,238.61l5.75,3.87,11.52-17.06-5.76-3.87Zm-10.68-3.26L257.8,252.41l5.73,3.89,11.53-17.08Zm19.09-15.91-5.74-3.88-11.52,17.08,5.74,3.88Zm-27.94,9.92-11.52,17.08,5.76,3.88,11.5-17.08Zm7.58,1.18,11.5-17.08-5.74-3.89-11.52,17.08ZM126.64,166l5.75,3.87L157.24,133l-5.73-3.87Zm-3.12-2.11L148.4,127l-5.76-3.87L117.77,160Zm16-42.83-5.74-3.88L108.92,154l5.75,3.88Z" transform="translate(-83.82 -75.61)"/></svg>