<svg xmlns="http://www.w3.org/2000/svg" viewBox="0 0 113.39 110.59"><defs><style>.cls-1,.cls-2{fill:#181616;}.cls-1{fill-rule:evenodd;}</style></defs><title>gitoctocat</title><g id="Capa_2" data-name="Capa 2"><g id="Capa_1-2" data-name="Capa 1"><g id="_Grupo_" data-name="&lt;Grupo&gt;"><path id="_Trazado_" data-name="&lt;Trazado&gt;" class="cls-1" d="M56.69,0A56.7,56.7,0,0,0,38.77,110.49c2.83.52,3.87-1.23,3.87-2.73s0-5.82-.07-10.55c-15.78,3.43-19.1-6.69-19.1-6.69-2.58-6.56-6.3-8.3-6.3-8.3-5.14-3.52.39-3.44.39-3.44,5.69.4,8.69,5.84,8.69,5.84,5.06,8.66,13.26,6.16,16.5,4.71a12.08,12.08,0,0,1,3.6-7.58c-12.59-1.43-25.83-6.3-25.83-28a21.93,21.93,0,0,1,5.84-15.22c-.59-1.42-2.53-7.19.55-15,0,0,4.76-1.52,15.59,5.81a53.74,53.74,0,0,1,28.4,0C81.72,22,86.47,23.51,86.47,23.51c3.09,7.81,1.15,13.58.56,15a21.92,21.92,0,0,1,5.83,15.22c0,21.78-13.26,26.57-25.89,28,2,1.76,3.85,5.21,3.85,10.5,0,7.59-.07,13.69-.07,15.56,0,1.51,1,3.28,3.9,2.72A56.7,56.7,0,0,0,56.69,0Z"/><path id="_Trazado_2" data-name="&lt;Trazado&gt;" class="cls-2" d="M21.47,81.4c-.12.28-.57.37-1,.17s-.64-.57-.51-.85.57-.37,1-.18S21.61,81.12,21.47,81.4Z"/><path id="_Trazado_3" data-name="&lt;Trazado&gt;" class="cls-2" d="M23.77,84c-.27.25-.8.13-1.16-.26s-.44-.93-.16-1.18.79-.13,1.16.26S24.05,83.71,23.77,84Z"/><path id="_Trazado_4" data-name="&lt;Trazado&gt;" class="cls-2" d="M26,87.22c-.34.25-.91,0-1.26-.48s-.35-1.11,0-1.36.91,0,1.26.48S26.36,87,26,87.22Z"/><path id="_Trazado_5" data-name="&lt;Trazado&gt;" class="cls-2" d="M29.07,90.38c-.31.34-1,.25-1.46-.22a1.09,1.09,0,0,1-.32-1.45c.31-.34,1-.24,1.47.22S29.4,90,29.07,90.38Z"/><path id="_Trazado_6" data-name="&lt;Trazado&gt;" class="cls-2" d="M33.29,92.21c-.14.44-.77.65-1.42.46s-1.06-.72-.93-1.16.78-.66,1.42-.46S33.42,91.76,33.29,92.21Z"/><path id="_Trazado_7" data-name="&lt;Trazado&gt;" class="cls-2" d="M37.93,92.55c0,.47-.53.86-1.2.86s-1.23-.36-1.24-.82.54-.85,1.21-.87S37.93,92.09,37.93,92.55Z"/><path id="_Trazado_8" data-name="&lt;Trazado&gt;" class="cls-2" d="M42.25,91.82c.08.45-.39.92-1.06,1s-1.27-.16-1.35-.61.4-.93,1-1.06S42.16,91.35,42.25,91.82Z"/></g></g></g></svg>