<svg xmlns="http://www.w3.org/2000/svg" viewBox="0 0 918.15 1254.13"><defs><style>.cls-1{fill:#caa777;}.cls-2{fill:#efbf7e;}.cls-3{fill:#daaa66;}.cls-4{fill:#466583;}.cls-5{fill:#8bd4e4;}.cls-6{fill:#6dc0d5;}.cls-7,.cls-8{fill:#1e4569;}.cls-8{font-size:192.41px;font-family:Montserrat-SemiBold, Montserrat;font-weight:700;}.cls-9{letter-spacing:-0.02em;}.cls-10{letter-spacing:-0.02em;}</style></defs><title>acuario</title><g id="Capa_2" data-name="Capa 2"><g id="Layer_1" data-name="Layer 1"><path class="cls-1" d="M428.57,129.28c-18.29,24.71-37.14,59.59-53.46,100.5a748.19,748.19,0,0,1,78.67,11.34c11.36-40.05,17.3-76.45,17.59-104.52C472,79.84,460.52,86.1,428.57,129.28Z"/><path class="cls-2" d="M353.53,92.9c-42.8.83-91.17,5.73-138.92,14C167.8,115,122.37,127.74,106.14,178,94,215.54,108.37,254.31,135,281.9c52.24,47.88,117,79,171.41,104.24-5.33-69.67,28.67-170.46,62.33-233.09l17.8-30a234.46,234.46,0,0,1,21.8-28.66A537,537,0,0,0,353.53,92.9Z"/><path class="cls-3" d="M251.68,197.85a963.86,963.86,0,0,0-146.2-17.72C94.57,217,108.87,254.83,135,281.9c52.24,47.88,117,79,171.41,104.24C302.71,337.72,318,274.28,339,219.05,311.3,211,282.07,203.84,251.68,197.85Z"/><path class="cls-4" d="M459.08,0A417.08,417.08,0,0,0,239.13,62.4c-10.56,1.5-21.14,3.17-31.67,5-63,10.9-118.31,32.65-139.54,98.36-10.1,31.28-7.49,63.51,4.35,92.56A419.66,419.66,0,0,0,40.35,418.72c0,231.25,187.48,418.73,418.73,418.73A418.74,418.74,0,0,0,877.8,418.72C877.8,187.48,690.32,0,459.08,0ZM106.14,178c16.23-50.28,61.66-63,108.47-71.11,47.75-8.28,96.12-13.18,138.92-14a537,537,0,0,1,54.81,1.48A234.46,234.46,0,0,0,386.54,123c-50.35-2.29-129.48-.49-231.23,27.44,52-5.18,156.44-8.41,213.43,2.57-33.66,62.63-67.66,163.42-62.33,233.09C252,360.89,187.24,329.78,135,281.9,108.37,254.31,94,215.54,106.14,178Zm504.54,329.5c17,9,29.4,23.6,32.84,42.94,2.71,15.2-.87,31.93-11.1,43.73-11.74,13.56-33.13,19.62-47.72,7-11.14-9.65-12.52-20.92-13.91-34.35C557.06,434.2,477,357.14,352.56,315.66a509.59,509.59,0,0,1,14.08-53.84C505.91,272.71,629.29,321,690.87,454.28a137.7,137.7,0,0,0-79.13,17.19C596.79,478.31,595.83,499.63,610.68,507.52Zm-114.25,75A20,20,0,0,0,484,581.44a121.41,121.41,0,0,0-24.13,7.31c3.1-88.43-27.74-141.94-109-181.75-6.7-6-5-40.3-4.16-50.87,106.25,37.63,172.35,101,184.12,214.79,1,9.6,2,18.93,3.36,28,2.37,35.42-2.46,53.77-9.8,60.59-4.13,3.84-10.85-3.16-13.22-6.15-7.95-10-11.76-26.68-4.15-44.51A20.09,20.09,0,0,0,496.43,582.51ZM450.27,232.74a663.35,663.35,0,0,0-69.62-10c14.44-36.2,31.12-67.08,47.31-89,28.27-38.21,38.39-43.75,37.87,6.48C465.58,165.08,460.33,197.3,450.27,232.74ZM327.84,767.24c-26.29-20.37-29.38-56.74-11-83.51A65.86,65.86,0,0,1,332,668.08c4.55,27.4,27.3,53.89,56.24,55.51a120.53,120.53,0,0,0,18.66,44.71C383.83,786.84,350.75,785,327.84,767.24Zm89.69-148.53a122.36,122.36,0,0,0-30.34,64.06C373,677.1,368.17,658,374,644.47c6.49-15.26-7.35-31.11-23.08-27.4a106,106,0,0,0-82.81,128.45A379.37,379.37,0,0,1,98.92,301.84C143.79,354.53,235.24,397.49,298,426.51,401.66,474.47,428.78,503.07,417.53,618.71ZM521.75,779.79A80.76,80.76,0,0,1,461.1,767c-47.14-32.41-46.67-103,1.75-134.52,1.44,28.71,19.36,60.49,49,67.31,24.26,5.58,43.29-8.43,53-29.63a137.87,137.87,0,0,0,22.86,26A80.86,80.86,0,0,1,521.75,779.79Zm86.36-13.08a121.32,121.32,0,0,0,18.29-46.55,138.47,138.47,0,0,0,47.23,10.38A377.53,377.53,0,0,1,608.11,766.71Zm166-149.05a98,98,0,0,1-14.41,31c-25.66,33.5-64,49.69-105.9,38.47a97.92,97.92,0,0,1-55.39-39c56.13,4,94.07-51.83,84.7-104.53A97.7,97.7,0,0,0,660,495.85C730.38,481.87,793.16,546.73,774.15,617.66Zm38.3-63.16a138.78,138.78,0,0,0-72.67-86.78c-44.12-119.53-130-191.91-250.36-225.61,10.65-38.11,16.22-73.47,16.51-101.55.26-25.41-4.48-65-32.91-74.75-26.92-9.26-65.88-13.39-110.57-13.13a379.55,379.55,0,0,1,96.63-12.42c209,0,378.46,169.44,378.46,378.46A377.69,377.69,0,0,1,812.45,554.5Z"/><path class="cls-5" d="M704.71,497.35a98.66,98.66,0,0,0-44.69-1.5,97.7,97.7,0,0,1,23.13,47.69c9.37,52.7-28.57,108.49-84.7,104.53A98.26,98.26,0,1,0,704.71,497.35Z"/><path class="cls-6" d="M660,495.88a97.57,97.57,0,0,1,23.11,47.66c9.37,52.7-28.57,108.49-84.7,104.53a98.34,98.34,0,0,0,102.1,40.07,172.22,172.22,0,0,0,14.34-69.6C714.89,566.69,693,521.24,660,495.88Z"/><path class="cls-5" d="M564.86,670.11c-9.72,21.2-28.75,35.21-53,29.63-29.64-6.82-47.56-38.6-49-67.31a80.9,80.9,0,1,0,124.87,63.65A137.87,137.87,0,0,1,564.86,670.11Z"/><path class="cls-6" d="M511.85,699.74c-29.61-6.82-47.52-38.54-49-67.23-.07,2-.12,4-.12,6.08,0,62.65,32,115.95,76.72,135.76a80.91,80.91,0,0,0,48.26-78.27,137.87,137.87,0,0,1-22.86-26C555.14,691.31,536.11,705.32,511.85,699.74Z"/><path class="cls-5" d="M332,668.08a65.86,65.86,0,0,0-15.12,15.65c-18.4,26.77-15.31,63.14,11,83.51,22.91,17.75,56,19.6,79,1.06a120.53,120.53,0,0,1-18.66-44.71C359.28,722,336.53,695.48,332,668.08Z"/><path class="cls-6" d="M332,668.1c.85,46.15,19.06,86.93,46.79,112.55a59.29,59.29,0,0,0,28.11-12.35,120.53,120.53,0,0,1-18.66-44.71C359.29,722,336.54,695.49,332,668.1Z"/><path class="cls-5" d="M530.85,570.92C519.08,457.14,453,393.76,346.73,356.13c-.83,10.57-2.54,44.9,4.16,50.87,81.24,39.81,112.08,93.32,109,181.75A121.41,121.41,0,0,1,484,581.44a20.07,20.07,0,0,1,23,27.41c-7.61,17.83-3.8,34.5,4.15,44.51,2.37,3,9.09,10,13.22,6.15,7.34-6.82,12.17-25.17,9.8-60.59C532.81,589.85,531.85,580.52,530.85,570.92Z"/><path class="cls-6" d="M350.89,407q12.06,5.92,22.65,12.26-12.39-8-24.59-15.25A8.24,8.24,0,0,0,350.89,407Z"/><path class="cls-6" d="M530.85,570.92q-1.33-13-3.63-25.12c-43.5-43.79-88.33-81.49-132-111.93,48.25,36.76,67.07,84.87,64.62,154.88A121.41,121.41,0,0,1,484,581.44a20.07,20.07,0,0,1,23,27.41c-7.61,17.83-3.8,34.5,4.15,44.51,2.37,3,9.09,10,13.22,6.15,7.34-6.82,12.17-25.17,9.8-60.59C532.81,589.85,531.85,580.52,530.85,570.92Z"/><path class="cls-5" d="M366.64,261.82a509.59,509.59,0,0,0-14.08,53.84C477,357.14,557.06,434.2,570.79,566.83c1.39,13.43,2.77,24.7,13.91,34.35,14.59,12.63,36,6.57,47.72-7,10.23-11.8,13.81-28.53,11.1-43.73-3.44-19.34-15.87-33.92-32.84-42.94-14.85-7.89-13.89-29.21,1.06-36a137.7,137.7,0,0,1,79.13-17.19C629.29,321,505.91,272.71,366.64,261.82Z"/><path class="cls-6" d="M352.61,315.68C477,357.16,557.07,434.22,570.79,566.83c1.39,13.43,2.77,24.7,13.91,34.35,14.59,12.63,36,6.57,47.72-7,10.23-11.8,13.81-28.53,11.1-43.73-3.44-19.34-15.87-33.92-32.84-42.94-14.85-7.89-13.89-29.21,1.06-36a137.7,137.7,0,0,1,79.13-17.19c-.86-1.85-1.72-3.67-2.6-5.48C566.41,368.62,443.1,321.87,352.61,315.68Z"/><path class="cls-7" d="M65,277a179.69,179.69,0,0,0,29.05,40.92q2.23-8.1,4.82-16.07a159.21,159.21,0,0,1-26.67-43.47Q68.43,267.59,65,277Z"/><path class="cls-7" d="M272.75,43.68q-17.28,8.61-33.62,18.72c40.68-5.8,82.21-9.47,123.32-9.72a377.26,377.26,0,0,1,65.24-11.14C378,35.56,322.48,38.31,272.75,43.68Z"/><text class="cls-8" transform="translate(0.58 1170.24)"><tspan class="cls-9">A</tspan><tspan x="142.38" y="0">C</tspan><tspan class="cls-10" x="275.91" y="0">U</tspan><tspan x="416.94" y="0">ARIO</tspan></text></g></g></svg>