<svg xmlns="http://www.w3.org/2000/svg" viewBox="0 0 1022.25 1292.66"><defs><style>.cls-1,.cls-2{fill:none;}.cls-2{font-size:192.41px;font-family:Montserrat-SemiBold, Montserrat;font-weight:700;}.cls-3{letter-spacing:-0.01em;}.cls-4{letter-spacing:0em;}</style></defs><title>blanco</title><g id="Capa_2" data-name="Capa 2"><g id="Layer_1" data-name="Layer 1"><path class="cls-1" d="M467.49,47.4c-28.09,12-48.38,37.37-62.41,63.63-18.53,34.69-20.47,82.61,18.7,103.53,39.77,21.25,92.31,5.23,131.45-10.39,40-16,76.81-30.63,112.86-8.76-14.21-40.2-35.63-75-60.84-101.62C572.47,57.12,518.52,25.64,467.49,47.4Z"/><path class="cls-1" d="M392.82,150.18c-8.44,20.26.65,56.48,26.24,70.15,39.77,21.24,96,8.89,135.12-6.72,39.85-15.9,77.5-39.92,113.37-18.52-53.72-34.2-119.8-54.39-191.26-54.39A369.2,369.2,0,0,0,392.82,150.18Z"/><path class="cls-1" d="M508.84,591.93c-11.85,41.47-52.65,79.71-88.5,102.76C496.8,767.06,650,756.85,724.1,687c3.9-34.64-12.3-99.25-37.27-124C639.93,516.38,563.6,606.81,508.84,591.93Z"/><path class="cls-1" d="M508.84,591.93c26.35,70.78,136.77,116.88,215.26,95,8-55.18-16-102.87-37.27-124C639.93,516.38,563.6,606.81,508.84,591.93Z"/><path class="cls-1" d="M579.76,21.62c-39-21.71-84-29.95-128-11.18a136.34,136.34,0,0,0-25.2,14.12C232.4,64.37,92.4,236,92.4,434.73,92.4,666,279.88,853.45,511.12,853.45S929.85,666,929.85,434.73C929.85,229.87,781.42,54.88,579.76,21.62ZM405.08,111c14-26.26,34.32-51.65,62.41-63.63,51-21.76,105,9.72,139.76,46.39,25.21,26.58,46.63,61.42,60.84,101.62-36.05-21.87-72.81-7.21-112.86,8.76-39.14,15.62-91.68,31.64-131.45,10.39C384.61,193.64,386.55,145.72,405.08,111Zm-48,12.45c-14.72,53.25,3.75,108.15,56.53,130.63-23,39.65-30.42,121.57-69.08,142.79-28.66,15.74-68-12.88-88.34-31.19-18.48-16.61-26-28.55-40-47C233.34,236.25,292.94,173.8,357.11,123.48Zm112.75,458.7c-13.15,42.41-56.95,68.47-92.27,90.51-101.82-35.12-162.33-189-161.77-290.09,35.09,36,93,76.16,144.3,51.47C382,486,488.26,522.8,469.86,582.18Zm39,9.75c54.76,14.88,131.09-75.55,178-29,25,24.79,41.17,89.4,37.27,124-74.14,69.89-227.3,80.1-303.76,7.73C456.19,671.64,497,633.4,508.84,591.93Zm2.28,221.27c-209,0-378.46-169.44-378.46-378.47A378,378,0,0,1,290.92,126.89c-55.69,51.18-100,111.5-114.76,187.34-1.58,6.51.51,14,3.16,20-20,131.69,53.91,335.85,190,378a27.5,27.5,0,0,0,12.52.47C465,804.57,625.61,803.22,724.08,738c4.85-.21,9.82-.55,14.86-1A376.78,376.78,0,0,1,511.12,813.2ZM794.34,685.79c-10.38,2.89-20.64,5.28-30.59,7.15C770,650.79,751,579.57,724.88,545.59c58.12-21.86,107.69-66.71,164.24-91.83A376.94,376.94,0,0,1,794.34,685.79ZM684.08,514.4c-73.07-26-140.35,55.88-174.38,33.39C494.05,490.37,391.64,439.12,396,403c21.78-30.41,44.13-135.55,66.19-138.57,39.69,1.61,71.55-8.48,107.83-23,41.51-16.56,78-31.12,114.5,33.84,16.15,28.83,42.41,13.61,40.55-6.07C718.16,196,689.74,130.7,651.13,83,786.62,137,879.7,264.6,888.84,410.74,831.17,430.81,729.87,514.34,684.08,514.4Z"/><path class="cls-1" d="M248.15,149.65c-26.5,29-48.58,60.44-64.4,95.08A380.08,380.08,0,0,1,290.93,126.88c35.46-32.59,77.49-63.26,124.31-93.49q5.56-4.77,11.33-8.83-19.74,4-38.78,9.91C337.78,67.86,288.46,105.5,248.15,149.65Z"/><path class="cls-1" d="M617.31,29.6Q599,24.82,580.06,21.66c19.86,11.07,38.9,26.12,56.28,44.46q7.62,8,14.8,16.9,13.46,5.37,26.39,11.7a312.19,312.19,0,0,0-30.92-38.34A272,272,0,0,0,617.31,29.6Z"/><path class="cls-1" d="M357.11,123.48C292.94,173.8,233.34,236.25,216.2,318.75c14,18.41,21.54,30.35,40,47,20.37,18.31,59.68,46.93,88.34,31.19,38.66-21.22,46.08-103.14,69.08-142.79C360.86,231.63,342.39,176.73,357.11,123.48Z"/><path class="cls-1" d="M216.2,318.75c14,18.41,21.54,30.35,40,47,20.37,18.31,59.68,46.93,88.34,31.19,38.66-21.22,46.08-103.13,69.08-142.78C366.67,248.71,228.15,261.21,216.2,318.75Z"/><path class="cls-1" d="M360.12,434.07c-51.32,24.69-109.21-15.46-144.3-51.47-.56,101.14,59.95,255,161.77,290.09,35.32-22,79.12-48.1,92.27-90.51C488.26,522.8,382,486,360.12,434.07Z"/><path class="cls-1" d="M360.12,434.08C326.71,491,301.36,646.41,377.59,672.69c35.32-22,79.12-48.1,92.27-90.51C488.26,522.8,382,486,360.12,434.08Z"/><path class="cls-1" d="M763.75,692.94c10-1.87,20.21-4.26,30.59-7.15a376.94,376.94,0,0,0,94.78-232c-56.55,25.12-106.12,70-164.24,91.83C751,579.57,770,650.79,763.75,692.94Z"/><path class="cls-1" d="M848.56,606.29a376.46,376.46,0,0,0,40.56-152.53c-56.55,25.12-106.12,70-164.24,91.83C747.25,574.72,811.18,637,848.56,606.29Z"/><text class="cls-2" transform="translate(0 1208.77)">ES<tspan class="cls-3" x="251.09" y="0">C</tspan><tspan class="cls-4" x="382.12" y="0">ORPIO</tspan></text></g></g></svg>