<svg xmlns="http://www.w3.org/2000/svg" viewBox="0 0 1400.52 1318.4"><defs><style>.cls-1{fill:#8bd4e4;}.cls-2{fill:#6dc0d5;}.cls-3{fill:#466583;}.cls-4,.cls-5{fill:#1e4569;}.cls-5{font-size:192.41px;font-family:Montserrat-SemiBold, Montserrat;font-weight:700;}.cls-6{letter-spacing:-0.01em;}.cls-7{letter-spacing:-0.01em;}</style></defs><title>capricornio</title><g id="Capa_2" data-name="Capa 2"><g id="Layer_1" data-name="Layer 1"><path class="cls-1" d="M742.07,364q-4.49,14.93-7.85,31.2a20.06,20.06,0,1,1-39.31-8c21.61-105.38,78.22-179.4,167.15-236-86.81,40.92-204.52,140.51-222.38,237.29-2.5,13.58-2.74,26.73-.33,39.11a20.07,20.07,0,0,1-5,17.52c-41.16,48.8-26.71,83.37-53.6,139.2-18.91,39.27-43.89,76.12-65.13,114.22-2,3.52,2.33,11.31,9,20.06,11.78,15.43,32.82,33.14,49.83,42.62,3.83,1.18,52.43-41.68,127.66,2.08a114.31,114.31,0,0,1,8.69-45.89c10.4-24.58,69.37-93.6,150.66-78.77-30.57,15.6-47.26,23.39-59.13,34.46C880.63,707.53,926.06,732.5,980,802.21a379,379,0,0,0,76.73-382.47C965.2,377,846.31,396.29,742.07,364Z"/><path class="cls-2" d="M728.71,691.05C830.8,677.69,915.85,719.31,980,802.21a377.05,377.05,0,0,0,95.53-205.33C951.49,538.89,809.06,580.84,728.71,691.05Z"/><path class="cls-3" d="M616.9,535.06a20.07,20.07,0,0,0,34.48,20.56c-10.58-25-7.78-44.19,6.74-69.39C635.32,500.81,629.75,513.47,616.9,535.06Z"/><path class="cls-3" d="M896.4,177.24c25.85-17.77,75.93-40.66,106.53-53.48,17.71-8,14.78-34.47-4.63-38-54.34-10-114.78,9.74-162.93,33.9,2.72-2.78,5.45-5.52,8.22-8.24,28.16-27.64,58.64-51.91,87.49-74.75C947.63,25.25,938.86-1.15,918.52,0c-70.63,4.28-146.63,58.2-206.35,128.67C476.38,122.05,281.54,311.3,281.54,547.26,281.54,778.51,469,966,700.26,966A418.77,418.77,0,0,0,896.4,177.24ZM802.39,96C777.64,121.93,755,150.81,737,184a535.64,535.64,0,0,0-45.56,41.87C720.15,177.81,759,131.42,802.39,96ZM700.26,925.73c-209,0-378.47-169.44-378.47-378.47,0-201.46,158-367.8,359.06-378-46.34,66-77.16,140-77.94,199.81-4.74,18.42-6.72,37.63-4.53,56.53-44.52,55.45-26.74,85.09-53.79,141.25-18.47,38.35-43.21,74.83-64,112.17-11.43,20.51-3.66,43.22,12.15,63.93C508,763.07,532.86,784,555,796.31c14.17,7.89,27.33,9.4,35.7,3,46.67-35.63,95.55.4,115.3,14.95s50.87,14.5,41.77-17.3c-7.84-27.33-6.64-48.2,0-64,5.16-12.22,13.86-21.85,24.26-29.32,78.79,35.1,124.23,54.66,179.18,126.88A377.05,377.05,0,0,1,700.26,925.73Zm378.46-378.47a377.11,377.11,0,0,1-98.75,255c-53.91-69.71-99.34-94.68-177.62-129.09,11.87-11.07,28.56-18.86,59.13-34.46-81.29-14.83-140.26,54.19-150.66,78.77a114.31,114.31,0,0,0-8.69,45.89c-75.23-43.76-123.83-.9-127.66-2.08-17-9.48-38.05-27.19-49.83-42.62-6.68-8.75-11-16.54-9-20.06,21.24-38.1,46.22-74.95,65.13-114.22,26.89-55.83,12.44-90.4,53.6-139.2a20.07,20.07,0,0,0,5-17.52c-2.41-12.38-2.17-25.53.33-39.11,17.86-96.78,135.57-196.37,222.38-237.29-88.93,56.59-145.54,130.61-167.15,236a20.06,20.06,0,1,0,39.31,8q3.35-16.29,7.85-31.2C846.31,396.29,965.2,377,1056.7,419.74A378,378,0,0,1,1078.72,547.26ZM756,326.33c22.64-50.81,57.21-90.61,101.54-123.39a380,380,0,0,1,176,164.93C944.47,340.43,850,354.86,756,326.33Z"/><path class="cls-4" d="M690.52,128.65c-11,13.66-21.42,27.84-31.08,42.33q10.63-1.14,21.42-1.69c9.79-13.95,20.27-27.55,31.31-40.58q-5.94-.17-11.91-.17Q695.37,128.54,690.52,128.65Z"/><path class="cls-4" d="M857.57,202.94q8.61,3.94,17,8.3c12.46-8.81,25.43-16.93,38.7-24.55q-8.29-4.91-16.85-9.45C883.05,185.2,870.05,193.71,857.57,202.94Z"/><path class="cls-1" d="M691.45,225.88A535.64,535.64,0,0,1,737,184c18-33.2,40.63-62.08,65.38-88C759,131.42,720.15,177.81,691.45,225.88Z"/><text class="cls-5" transform="translate(0 1234.51)"><tspan class="cls-6">C</tspan><tspan x="132.18" y="0">APRI</tspan><tspan class="cls-7" x="608.19" y="0">C</tspan><tspan x="739.22" y="0">ORNIO</tspan></text></g></g></svg>