<svg xmlns="http://www.w3.org/2000/svg" viewBox="0 0 1069.96 1290.71"><defs><style>.cls-1{fill:#efbf7e;}.cls-2{fill:#466583;}.cls-3,.cls-5{fill:#1e4569;}.cls-4{fill:#daaa66;}.cls-5{font-size:192.41px;font-family:Montserrat-SemiBold, Montserrat;font-weight:700;}.cls-6{letter-spacing:0em;}.cls-7{letter-spacing:-0.02em;}.cls-8{letter-spacing:-0.07em;}</style></defs><title>sagitario</title><g id="Capa_2" data-name="Capa 2"><g id="Layer_1" data-name="Layer 1"><path class="cls-1" d="M215.55,448.7l17.36,6.58c31.47,9.54,17.5,22.72,5.82,44.61l44.44-18.55,20.9-39.15-42.46-12.9Z"/><path class="cls-2" d="M934.91,196.52c10.05-12.69,1.46-32-15.14-32.49L856,162a418.72,418.72,0,0,0-578.29-61.62c-4.89-4.34-8.71-9.34-10.7-15.07-9.21-26.56,14.66-42,37.94-45.34,26.16-3.61,20.67-43.4-5.5-39.78-49.57,7-88,47.27-70.34,98.17a80.35,80.35,0,0,0,17.24,29A417.52,417.52,0,0,0,116.17,430.83c0,231.24,187.47,418.72,418.72,418.72,318.37,0,516-340.21,370-615Zm-56.23,6.37L823,273.37l-29.83-73.15ZM534.89,52.36A377.25,377.25,0,0,1,799.55,160.28l-35.43-1.1a20.11,20.11,0,0,0-19.79,27.6l19.19,47.07L609.88,296.31c-12-28.61-27.6-54.7-46.09-75.5-57.5-64.71-133.4-78.66-197.38-90.42-14.67-2.69-28.6-5.25-41.17-8.29-2.14-.51-4.42-1.11-6.79-1.78A376.76,376.76,0,0,1,534.89,52.36Zm-235.7,104.4c18,5.39,38.37,9.13,60,13.1,57.7,10.6,126.15,23.19,174.58,77.68,15.45,17.39,28.6,39.46,38.91,63.89l-246,100c-19.8-6.26-42.68-14.35-61.48-18.6Zm-1.32,287.89.06.15c.13.33.28.66.43,1l-17.79,33.33-34.91,14.82L252,482.07c6-11.22-.39-26.6-12.56-30.29l-12.85-3.9,35.16-14.21ZM256,175,222.65,406.16l-66.21,26.93A377.07,377.07,0,0,1,256,175Zm142.3,608.84C265.81,732.59,172.5,610.72,158.32,468.92l47.47,14.55L184,524.22c-9.89,16.38,7,36.55,25,28.88l48.76-20.71L410.38,719.32C398.41,739.12,393.3,761,398.26,783.87ZM296.31,516.06c7.24-3.08,13.1-4.84,16.78-12.72l29.3-54.89,243.54-99c10.71,37.48,15.45,81.27,9.71,120C583.2,553.24,525,605.45,476.5,649c-14.68,13.17-28.6,25.65-40.59,38.17ZM534.89,809.29q-8.77,0-17.45-.4A20.14,20.14,0,0,0,489.09,791c-11.38,5.12-27,9.22-38.65,2.79-7.46-4.15-11.95-12-13.2-20.28-4.76-31.21,27.35-60,66-94.69,53.48-48,117.64-105.54,132.19-203.59,6.84-46.1,1-96.48-12.06-141L778.7,271.08l19.66,48.23c5,14.86,24.83,18.6,34.8,6l44.15-55.86C994.2,517,814.64,809.29,534.89,809.29Z"/><path class="cls-3" d="M235.73,137.87a93.57,93.57,0,0,0,9.33,8.64l-7.16,49.71Q246.54,185.29,256,175L261,139.84a84.27,84.27,0,0,1-14.73-12.39Q240.92,132.57,235.73,137.87Z"/><path class="cls-3" d="M277.66,100.42c11,9.72,27.38,16.1,40.79,19.9q8.28-5.77,16.87-11.13c-15-3.32-33.32-8.67-45.5-17.9Q283.65,95.75,277.66,100.42Z"/><path class="cls-3" d="M786.06,147.71q6.9,6.12,13.49,12.57L856,162q-5.33-6.36-10.89-12.49Z"/><path class="cls-3" d="M877.31,269.44q2.93,6.18,5.62,12.47l28-35.44q-2.94-6-6.08-11.89Z"/><polygon class="cls-1" points="822.97 273.37 878.68 202.89 793.14 200.22 822.97 273.37"/><polygon class="cls-4" points="822.97 273.37 878.68 202.89 808.06 236.8 822.97 273.37"/><path class="cls-4" d="M245.66,493.93l34.91-14.82,18.24-34.17L252.45,464.1C257.4,476.21,251.12,483.7,245.66,493.93Z"/><text class="cls-5" transform="translate(0 1206.82)"><tspan class="cls-6">S</tspan><tspan class="cls-7" x="121.79" y="0">A</tspan><tspan x="264.17" y="0">GI</tspan><tspan class="cls-8" x="467.73" y="0">T</tspan><tspan x="569.33" y="0">ARIO</tspan></text></g></g></svg>